# xmcd
#
# Track frame offsets:
#	150
#	18391
#	36228
#	52380
#	73278
#	88933
#	111798
#	129591
#	148745
#	167395
#	184877
#
# Disc length: 2760 seconds
#
# Revision: 11
# Processed by: cddbd v1.5.2PL0 Copyright (c) Steve Scherf et al.
# Submitted via: audiograbber 1.83.01
#
DISCID=a60ac60b
DTITLE=Bailey Rae, Corinne - Corinne Bailey Rae
DYEAR=2006
DGENRE=Pop
TTITLE0=Like a star
TTITLE1=Enchantment
TTITLE2=Put your records on
TTITLE3=Till it happens to you
TTITLE4=Trouble sleeping
TTITLE5=Call me when you get this
TTITLE6=Choux pastry heart
TTITLE7=Breathless
TTITLE8=I'd like to
TTITLE9=Butterfly
TTITLE10=Seasons change
EXTD=
EXTT0=
EXTT1=
EXTT2=
EXTT3=
EXTT4=
EXTT5=
EXTT6=
EXTT7=
EXTT8=
EXTT9=
EXTT10=
PLAYORDER=
